<svg width="185" height="56" viewBox="0 0 185 56" fill="none" xmlns="http://www.w3.org/2000/svg">
<path d="M179.646 40.2672C173.721 44.2655 165.486 40.462 165 33.2508C164.416 24.5792 174.15 19.8929 180.691 25.4165L181.392 23.5601H184.76V40.4425C184.624 42.7272 184.091 44.9535 182.553 46.706C178.082 51.8142 166.661 50.2954 165.584 42.8181H170.522C171.937 45.9466 177.401 46.1414 179.082 43.2465C179.185 43.0712 179.64 42.0587 179.64 41.9483V40.2672H179.646ZM174.39 27.6558C168.705 28.201 168.77 36.918 174.487 37.3529C181.45 37.8787 181.496 26.9743 174.39 27.6558Z" fill="#F2EFDF"/>
<path d="M138.629 42.3498H134.794L134.158 40.8439C128.999 44.959 120.868 42.5705 118.908 36.2225C116.682 28.9919 121.9 22.3064 129.505 23.0918C130.998 23.2476 132.205 23.8317 133.516 24.4808V16.7114H138.454L138.629 16.8867V42.3498ZM127.682 27.882C122.25 28.6154 122.159 37.5401 128.117 38.0594C135.819 38.7279 135.819 26.785 127.682 27.882Z" fill="#F2EFDF"/>
<path d="M91.3012 23.0203C104.728 23.0203 104.793 42.7845 91.3791 42.8884C77.8293 42.9922 77.7255 23.0268 91.3012 23.0203ZM90.2629 27.8818C88.2772 28.1479 86.5575 30.0173 86.3563 31.9839C85.5646 39.5716 95.2208 39.9675 96.2072 34.048C96.8496 30.173 94.2085 27.3496 90.2629 27.8818Z" fill="#F2EFDF"/>
<path d="M152.398 23.0405C165.903 23.0405 165.883 42.8632 152.398 42.8632C138.9 42.8632 138.881 23.0405 152.398 23.0405ZM151.379 27.8826C145.636 28.6615 145.915 39.0531 153.411 38.0341C155.403 37.7615 157.11 35.9051 157.317 33.932C157.726 30.044 155.396 27.3374 151.379 27.8826Z" fill="#F2EFDF"/>
<path d="M111.094 18.686V23.5605H116.207V27.6237H111.094V35.2244C111.094 35.6073 111.431 36.5225 111.678 36.847C111.95 37.2105 112.93 37.8336 113.365 37.8336H116.331V42.3577H111.743C109.218 42.3577 106.11 39.5342 106.11 36.9639V27.6237H102.625V26.6371C104.572 24.5666 106.493 22.3533 108.491 20.3087C108.744 20.0491 109.88 18.8288 110.062 18.7444C110.367 18.6081 110.776 18.712 111.107 18.686H111.094Z" fill="#F2EFDF"/>
<path d="M77.4805 26.1075C77.4933 26.0631 77.5061 26.0187 77.5189 25.968C77.5061 26.0124 77.4933 26.0568 77.4805 26.1075Z" fill="#F2EFDF"/>
<path d="M76.8887 27.4404C77.1156 27.0772 77.2906 26.6751 77.4268 26.2666C77.2906 26.6622 77.1156 27.0513 76.8887 27.4404Z" fill="#F2EFDF"/>
<path d="M77.63 32.1465C77.63 32.1465 77.6041 32.1011 77.5911 32.0751C76.741 30.6731 75.1771 30.0695 73.0356 30.0695V29.375C75.0213 29.375 76.2024 28.5506 76.8967 27.4472C77.1239 27.0578 77.2991 26.6683 77.4353 26.2724C77.4548 26.2205 77.4678 26.1685 77.4873 26.1166C77.5002 26.0712 77.5132 26.0257 77.5262 25.9738C77.5846 25.7531 77.6365 25.5389 77.6819 25.3183C78.2855 21.7678 75.521 18.3732 71.4197 17.9902H60.3164V42.3564H71.6468C72.432 42.3564 74.1388 41.6684 74.8461 41.2595C78.2271 39.3058 79.2524 35.2101 77.63 32.153V32.1465ZM65.5468 22.5143H70.602C70.6669 22.5143 71.1666 22.709 71.2834 22.7674C72.9447 23.5658 73.1134 26.162 71.5884 27.2071C71.4651 27.2914 70.8032 27.6225 70.7253 27.6225H65.5533V22.5208L65.5468 22.5143ZM71.9713 36.9951C71.848 37.0794 71.0174 37.4754 70.946 37.4754H65.5403V32.0232H70.5956C70.9979 32.0232 72.0167 32.5489 72.3282 32.8475C73.4509 33.9444 73.2822 36.1123 71.9713 36.9951Z" fill="#F2EFDF"/>
<path d="M77.4277 26.2627C77.447 26.212 77.4598 26.1613 77.479 26.1106C77.4662 26.1613 77.447 26.212 77.4277 26.2627Z" fill="#F2EFDF"/>
<path d="M77.6234 32.1407C77.6234 32.1407 77.5997 32.0996 77.5879 32.0762C77.5997 32.0938 77.6116 32.1172 77.6234 32.1407Z" fill="#F2EFDF"/>
<path d="M77.673 25.3125C77.6342 25.5328 77.5824 25.7531 77.5176 25.9669C77.5824 25.7466 77.6342 25.5328 77.673 25.3125Z" fill="#F2EFDF"/>
<g clip-path="url(#clip0_2_7679)">
<path d="M47.2052 39.5924C46.8797 38.1423 46.3077 36.64 45.4916 35.0914C45.4574 34.9989 45.4185 34.9087 45.3713 34.8197C45.3242 34.7307 45.2758 34.6429 45.2275 34.5551C45.2581 34.0769 45.2746 33.5986 45.2746 33.124C45.2746 32.4868 45.2463 31.8567 45.1933 31.2325L44.9633 29.4134C44.1425 24.547 41.7356 20.2181 38.2979 16.9845C38.838 16.4043 39.3098 15.7552 39.7001 15.0503C40.9643 12.7661 41.2697 10.1234 40.5586 7.60775C39.8475 5.09208 38.2059 3.00716 35.9358 1.7339C34.4876 0.922236 32.8543 0.492676 31.2127 0.492676C30.3129 0.492676 29.4131 0.619642 28.5392 0.870026C26.0427 1.58438 23.9718 3.23737 22.7052 5.52283C21.75 7.24939 21.342 9.17886 21.5047 11.1012C16.8111 11.4964 12.3416 13.4163 8.80131 16.5526C7.90622 15.6069 6.64437 15.0159 5.24808 15.0159C2.54159 15.0159 0.339844 17.2314 0.339844 19.9547C0.339844 21.0049 0.667689 21.9779 1.2255 22.7789C1.16535 24.1376 1.54862 25.3764 2.36942 26.4788C1.69604 28.6195 1.35404 30.8456 1.35404 33.1204C1.35404 42.5874 7.30124 50.6815 15.6342 53.8213L16.0976 53.9898C16.7698 54.2259 17.4574 54.4301 18.1567 54.5997L21.1038 55.1052C21.8314 55.1788 22.5684 55.2168 23.3149 55.2168C29.1147 55.2168 34.6244 52.9171 38.7236 48.8469C39.3475 48.9905 40.1518 49.1127 41.0374 49.1127C42.8182 49.1127 44.3583 48.6037 45.4916 47.6401C47.454 45.9717 48.0307 43.2626 47.2075 39.5888L47.2052 39.5924Z" fill="#F2EFDF"/>
<path d="M9.66065 19.7874C13.1219 16.2014 17.9629 13.9681 23.3122 13.9681C33.8091 13.9681 42.3496 22.5617 42.3496 33.124C42.3496 33.6081 42.3308 34.0887 42.2966 34.5634C42.7058 34.6346 43.0714 34.9395 43.0831 35.4747C43.0855 35.5661 43.089 35.6563 43.0926 35.7453C43.1728 35.7773 43.2494 35.8212 43.3178 35.877C43.4393 34.9763 43.5042 34.0579 43.5042 33.124C43.5042 21.921 34.446 12.8064 23.3122 12.8064C17.4464 12.8064 12.1572 15.3375 8.46484 19.3697C8.96722 19.143 9.43305 19.397 9.66065 19.7874Z" fill="#0025AA"/>
<path d="M37.6474 45.8339C37.6285 45.8149 37.6109 45.7959 37.5943 45.7769C34.1036 49.7628 28.9949 52.2809 23.313 52.2809C12.8161 52.2809 4.27563 43.6872 4.27563 33.125C4.27563 30.6307 4.75206 28.2455 5.61885 26.0586C5.51507 26.0158 5.41483 25.953 5.32284 25.8651C5.11057 25.6646 4.90537 25.4641 4.68956 25.2754C3.68008 27.6914 3.12109 30.3435 3.12109 33.1238C3.12109 44.3268 12.1793 53.4414 23.313 53.4414C29.5055 53.4414 35.0553 50.6208 38.7618 46.1899C38.3739 46.2599 37.967 46.1483 37.6474 45.8327V45.8339Z" fill="#0025AA"/>
<path d="M5.25062 23.1162C6.9844 23.1162 8.38991 21.702 8.38991 19.9574C8.38991 18.2128 6.9844 16.7986 5.25062 16.7986C3.51684 16.7986 2.11133 18.2128 2.11133 19.9574C2.11133 21.702 3.51684 23.1162 5.25062 23.1162Z" fill="#0025AA"/>
<path d="M20.3089 29.5911C15.7085 29.5911 10.4394 28.5421 7.98644 27.9903C6.69983 27.7008 5.52525 27.1098 4.58889 26.2816C3.36595 25.1982 2.86593 24.0258 3.01334 22.59C3.12538 21.4994 3.65606 20.5157 4.50752 19.8203C5.35897 19.125 6.42387 18.8034 7.50765 18.9161L23.4942 20.9192C23.7383 20.95 23.9117 21.1731 23.881 21.4187C23.8504 21.6644 23.6287 21.8412 23.3845 21.808L7.40741 19.8061C6.57011 19.7195 5.73516 19.971 5.06886 20.5157C4.40256 21.0604 3.98744 21.8305 3.899 22.6825C3.78225 23.8193 4.17613 24.7223 5.17736 25.6088C6.00051 26.3385 7.03947 26.8595 8.18103 27.1158C11.3227 27.823 19.1579 29.3609 24.0414 28.3795C24.2832 28.3309 24.5167 28.4887 24.565 28.7308C24.6134 28.9729 24.4565 29.209 24.216 29.2577C23.0402 29.4938 21.7064 29.5911 20.3101 29.5911H20.3089Z" fill="#0025AA"/>
<path d="M27.7833 17.0908C27.5533 17.0908 27.3281 17.1062 27.1075 17.1382C26.8469 17.1762 26.5922 17.2343 26.3469 17.3115C26.1771 17.3649 26.0096 17.4301 25.8469 17.5025C25.7266 17.5559 25.6086 17.6129 25.4943 17.6758C24.2961 18.3355 23.4057 19.4925 23.1062 20.869C23.0437 21.1562 23.0059 21.4528 22.9965 21.7578C22.9941 21.8053 22.9941 21.8563 22.9941 21.9061C22.9941 24.5642 25.1428 26.7227 27.7833 26.7227C29.6996 26.7227 31.3577 25.5823 32.1231 23.9412C32.1361 23.9139 32.1479 23.8914 32.1585 23.8629V23.8605C32.274 23.6018 32.366 23.3325 32.4332 23.05C32.4403 23.0204 32.4486 22.9871 32.4557 22.9539C32.5311 22.6169 32.5712 22.2645 32.5712 21.9049C32.5712 19.2504 30.4225 17.0884 27.7845 17.0884L27.7833 17.0908ZM27.7833 25.828C25.6322 25.828 23.8845 24.0694 23.8845 21.9073C23.8845 19.7453 25.6322 17.9867 27.7833 17.9867C29.9343 17.9867 31.6797 19.7453 31.6797 21.9073C31.6797 22.2419 31.6372 22.5671 31.5594 22.8768C31.537 22.9599 31.5146 23.0429 31.4863 23.1236C30.978 24.6912 29.5074 25.8291 27.7821 25.8291L27.7833 25.828Z" fill="#0025AA"/>
<path d="M17.8475 20.8795C17.8251 20.6908 17.8145 20.4986 17.8145 20.3075C17.8145 17.6518 19.962 15.491 22.6012 15.491C24.1945 15.491 25.678 16.2848 26.5707 17.615L25.8325 18.117C25.1061 17.0336 23.8973 16.3881 22.6012 16.3881C20.4525 16.3881 18.7036 18.1467 18.7036 20.3099C18.7036 20.4665 18.7131 20.6232 18.7308 20.7762L17.8475 20.8819V20.8795Z" fill="#0025AA"/>
<path d="M43.4236 36.3241C43.2656 36.3241 43.1123 36.2386 43.0309 36.0879C39.4694 29.4274 31.7427 23.5333 31.666 23.4752C31.4691 23.3269 31.4302 23.0456 31.5776 22.8475C31.725 22.6505 32.0045 22.6101 32.2003 22.7585C32.5234 23.0029 40.1593 28.8257 43.8152 35.6631C43.9319 35.8815 43.8505 36.152 43.6336 36.2695C43.5663 36.3063 43.4944 36.3229 43.4225 36.3229L43.4236 36.3241Z" fill="#0025AA"/>
<path d="M26.5631 18.0469L25.7871 17.6067C26.4416 16.4378 28.6221 13.1247 29.6057 12.0437L30.2625 12.6477C29.3887 13.6089 27.2577 16.8057 26.5619 18.0457L26.5631 18.0469Z" fill="#0025AA"/>
<path d="M33.7817 10.2627C33.7287 9.55546 33.4044 8.91349 32.869 8.4507C32.3713 8.02233 31.764 7.81348 31.1554 7.81348C30.4101 7.81348 29.6695 8.12794 29.1495 8.73905C28.239 9.81059 28.3263 11.409 29.3216 12.3761C29.3594 12.4117 29.3971 12.4461 29.4372 12.4817C29.6294 12.6455 29.8393 12.7807 30.0622 12.8816C30.3995 13.0406 30.7698 13.1201 31.1472 13.1201C31.2168 13.1201 31.2875 13.1177 31.3547 13.113C32.0576 13.0572 32.698 12.7309 33.1555 12.1922C33.6131 11.6534 33.836 10.9687 33.7806 10.2615L33.7817 10.2627ZM32.481 11.6119C32.1755 11.9667 31.7533 12.1827 31.2875 12.2206C30.8229 12.2586 30.37 12.1079 30.0174 11.8029C29.6624 11.4956 29.4466 11.0708 29.4124 10.6021C29.3747 10.1345 29.5221 9.68124 29.8252 9.32407C30.4526 8.58716 31.5588 8.50054 32.2887 9.13302C32.6437 9.43798 32.8595 9.8628 32.8961 10.3315C32.9315 10.7991 32.784 11.2547 32.481 11.6131V11.6119Z" fill="#0025AA"/>
<path d="M33.0279 11.4821C33.6177 10.4053 33.2648 9.07162 32.2397 8.50318C31.2147 7.93475 29.9057 8.34683 29.3159 9.42359C28.7261 10.5004 29.079 11.834 30.1041 12.4025C31.1291 12.9709 32.4381 12.5588 33.0279 11.4821Z" fill="#0025AA"/>
<path d="M21.3936 20.9042C22.0618 20.9042 22.6035 20.3591 22.6035 19.6867C22.6035 19.0143 22.0618 18.4692 21.3936 18.4692C20.7253 18.4692 20.1836 19.0143 20.1836 19.6867C20.1836 20.3591 20.7253 20.9042 21.3936 20.9042Z" fill="#0025AA"/>
<path d="M27.751 22.7421C28.4192 22.7421 28.9609 22.197 28.9609 21.5246C28.9609 20.8522 28.4192 20.3071 27.751 20.3071C27.0827 20.3071 26.541 20.8522 26.541 21.5246C26.541 22.197 27.0827 22.7421 27.751 22.7421Z" fill="#0025AA"/>
<path d="M26.5166 52.7605C25.3385 52.7605 24.1297 52.4544 23.3207 51.8611C21.6485 50.6341 21.2758 48.3462 20.9763 46.5081C20.935 46.2578 20.8961 46.0133 20.8536 45.7784C19.8795 40.302 19.4727 36.7718 19.4727 29.0859H20.363C20.363 36.703 20.7663 40.1988 21.7298 45.6205C21.7723 45.8602 21.8136 46.1094 21.8548 46.3634C22.1426 48.1267 22.4681 50.1262 23.8455 51.1372C25.0378 52.0118 27.4836 52.1186 28.6901 51.3461C29.6134 50.7563 29.9389 49.5056 29.6842 47.5227C28.7797 40.4824 28.9342 39.6375 28.9861 39.361C29.3257 37.5087 30.9649 36.8845 31.0345 36.8596L31.3399 37.7009C31.2916 37.7187 30.1064 38.1839 29.8599 39.5248C29.7927 39.8915 29.7951 41.4044 30.5663 47.4088C30.8694 49.7714 30.4118 51.3069 29.1677 52.1031C28.4754 52.5457 27.5072 52.7617 26.5178 52.7617L26.5166 52.7605Z" fill="#0025AA"/>
<path d="M41.0366 47.3382C39.8019 47.3382 38.7193 47.0427 38.349 46.8897C36.2003 46.0032 28.2978 38.8632 29.7236 28.4778C29.7578 28.2333 29.9819 28.0613 30.2248 28.0957C30.4678 28.1289 30.6388 28.3556 30.6046 28.6C29.3227 37.9448 36.2959 45.0741 38.6863 46.0614C39.4705 46.3853 42.2466 46.9015 43.7738 45.6022C44.9177 44.6291 45.1996 42.8064 44.6123 40.184C44.091 37.8617 42.4353 34.0135 37.5046 28.8706C34.5328 25.7711 31.7485 23.6541 31.7214 23.6328C31.5244 23.4844 31.4855 23.2032 31.6329 23.005C31.7803 22.8069 32.0598 22.7677 32.2556 22.916C32.2839 22.9374 35.1154 25.0888 38.1344 28.2369C42.2136 32.4886 44.6842 36.4413 45.479 39.9846C46.1465 42.9583 45.7656 45.0788 44.3469 46.2845C43.394 47.0949 42.1522 47.337 41.0343 47.337L41.0366 47.3382Z" fill="#0025AA"/>
<path d="M18.0525 52.621C16.7234 49.6437 15.7611 44.0511 16.8095 40.401C17.3791 38.417 18.4464 37.2944 19.9818 37.0654L19.8509 36.179C17.9664 36.4602 16.6196 37.8343 15.9533 40.1518C14.9509 43.6429 15.6302 48.9484 16.9428 52.3125C17.3343 52.3659 17.7058 52.4703 18.0513 52.6198L18.0525 52.621Z" fill="#0025AA"/>
<path d="M43.3096 32.2046C43.2967 31.9055 43.3191 31.6112 43.3745 31.3276C41.8049 31.4534 40.8638 31.5507 40.8343 31.5543C40.5902 31.5804 40.4121 31.8011 40.4381 32.0467C40.464 32.2924 40.6834 32.4727 40.9275 32.4455C40.9558 32.4419 41.8355 32.3505 43.3108 32.2319C43.3108 32.2236 43.3096 32.2152 43.3096 32.2058V32.2046Z" fill="#0025AA"/>
<path d="M32.4645 15.2011C32.2711 15.2011 32.0918 15.0729 32.0364 14.8759C31.9692 14.6386 32.106 14.3906 32.343 14.323C34.5542 13.6893 35.8408 11.3647 35.2122 9.13974C34.908 8.06228 34.2039 7.16755 33.231 6.62289C32.2581 6.07822 31.133 5.9465 30.0611 6.25266C28.9903 6.55881 28.1011 7.26723 27.5598 8.24621C27.0173 9.22518 26.8876 10.3572 27.1918 11.4359C27.259 11.6732 27.1222 11.9212 26.8852 11.9889C26.6493 12.0565 26.4029 11.9188 26.3357 11.6803C25.9665 10.3727 26.1246 8.99853 26.7826 7.80952C27.4407 6.6217 28.5185 5.76258 29.8181 5.39116C31.1177 5.01855 32.4845 5.17875 33.665 5.83971C34.8455 6.50185 35.6993 7.58644 36.0696 8.89411C36.8326 11.5937 35.2712 14.4155 32.5871 15.1833C32.547 15.1952 32.5057 15.2011 32.4656 15.2011H32.4645Z" fill="#0025AA"/>
<path d="M38.8556 8.09739C38.2742 6.03976 36.931 4.33337 35.0736 3.29151C33.2162 2.25082 31.0675 1.99926 29.0226 2.58427C24.8007 3.79227 22.3442 8.23147 23.5448 12.4784C23.612 12.7158 23.8585 12.8546 24.0943 12.787C24.3302 12.7193 24.4682 12.4713 24.4009 12.234C23.3348 8.46168 25.5166 4.51967 29.2667 3.44577C31.0828 2.92602 32.9921 3.14911 34.6408 4.0735C36.2906 4.99789 37.4829 6.51441 37.9994 8.34183C38.516 10.1693 38.2942 12.0904 37.3756 13.7505C36.6267 15.1021 35.4887 16.1487 34.1113 16.7717C34.4568 16.8785 34.7764 17.0517 35.0759 17.2843C36.359 16.5688 37.4216 15.5067 38.1539 14.186C39.1882 12.3171 39.4382 10.155 38.8568 8.09739H38.8556Z" fill="#0025AA"/>
<path d="M23.8702 26.9912C23.6674 27.683 23.7605 28.4638 24.1414 29.0773C24.4929 29.6422 25.0613 30.061 25.7052 30.2212C25.9257 30.2758 26.1875 30.15 26.2406 29.9151C26.2925 29.6884 26.1734 29.4345 25.9363 29.3763C25.8715 29.3597 25.8066 29.3419 25.7441 29.3206C25.7193 29.3123 25.6934 29.3028 25.6686 29.2933C25.5507 29.2482 25.7087 29.3135 25.6439 29.2814C25.5283 29.2245 25.4222 29.1592 25.3148 29.0892C25.25 29.0465 25.3278 29.1022 25.2913 29.0726C25.27 29.056 25.25 29.0382 25.2299 29.0204C25.1792 28.9765 25.1309 28.9302 25.0849 28.8803C25.0436 28.8364 25.0035 28.7913 24.9658 28.7439C25.0047 28.7925 24.9658 28.7439 24.9504 28.719C24.9316 28.6917 24.9127 28.6632 24.895 28.6347C24.8608 28.5801 24.8302 28.5243 24.8019 28.4674C24.7853 28.4342 24.7688 28.4009 24.7547 28.3665C24.7724 28.4104 24.7559 28.3665 24.75 28.3475C24.7264 28.2775 24.7028 28.2075 24.6851 28.1351C24.678 28.1066 24.671 28.077 24.6651 28.0485C24.6651 28.0521 24.6438 27.9322 24.6509 27.9749C24.658 28.0212 24.6438 27.9109 24.6438 27.9002C24.6403 27.8634 24.6391 27.8266 24.6379 27.7886C24.6356 27.7222 24.6379 27.6545 24.6415 27.5881C24.6415 27.5786 24.6521 27.4659 24.6462 27.5133C24.6415 27.556 24.6592 27.4374 24.6592 27.4398C24.6733 27.3674 24.691 27.295 24.7122 27.2238C24.7771 27.0043 24.6344 26.7361 24.408 26.6851C24.1815 26.634 23.941 26.7563 23.8726 26.9912H23.8702Z" fill="#0025AA"/>
<path d="M33.7463 9.13408C33.6055 9.05615 33.7264 8.83415 33.8672 8.91327C34.008 8.9912 33.8872 9.2132 33.7463 9.13408Z" fill="#F2EFDF"/>
<path d="M33.0178 8.73077C32.877 8.65283 32.9979 8.43083 33.1387 8.50995C33.2795 8.58906 33.1586 8.80988 33.0178 8.73077Z" fill="#F2EFDF"/>
<path d="M32.2932 8.32744C32.1524 8.24951 32.2733 8.02751 32.4141 8.10663C32.5549 8.18456 32.434 8.40656 32.2932 8.32744Z" fill="#F2EFDF"/>
<path d="M31.5627 7.92412C31.4219 7.84619 31.5428 7.62419 31.6836 7.70331C31.8244 7.78124 31.7036 8.00324 31.5627 7.92412Z" fill="#F2EFDF"/>
<path d="M30.8342 7.5208C30.6934 7.44287 30.8143 7.22087 30.9551 7.29999C31.0959 7.37792 30.975 7.59992 30.8342 7.5208Z" fill="#F2EFDF"/>
<path d="M33.9475 9.63311C33.8067 9.55517 33.9275 9.33318 34.0684 9.41229C34.2092 9.49023 34.0883 9.71222 33.9475 9.63311Z" fill="#F2EFDF"/>
<path d="M33.2209 9.22881C33.0801 9.15088 33.201 8.92888 33.3418 9.008C33.4826 9.08593 33.3618 9.30793 33.2209 9.22881Z" fill="#F2EFDF"/>
<path d="M32.4924 8.82647C32.3516 8.74853 32.4725 8.52654 32.6133 8.60565C32.7541 8.68477 32.6332 8.90558 32.4924 8.82647Z" fill="#F2EFDF"/>
<path d="M31.7639 8.42119C31.6231 8.34326 31.744 8.12126 31.8848 8.20038C32.0256 8.27949 31.9047 8.50031 31.7639 8.42119Z" fill="#F2EFDF"/>
<path d="M31.0354 8.0169C30.8946 7.93896 31.0154 7.71697 31.1563 7.79608C31.2971 7.87402 31.1762 8.09601 31.0354 8.0169Z" fill="#F2EFDF"/>
<path d="M30.3088 7.61455C30.168 7.53662 30.2889 7.31462 30.4297 7.39374C30.5705 7.47167 30.4497 7.69367 30.3088 7.61455Z" fill="#F2EFDF"/>
<path d="M33.4221 9.72588C33.2813 9.64795 33.4022 9.42595 33.543 9.50507C33.6838 9.583 33.5629 9.805 33.4221 9.72588Z" fill="#F2EFDF"/>
<path d="M32.6936 9.32354C32.5528 9.2456 32.6736 9.02361 32.8145 9.10272C32.9553 9.18066 32.8344 9.40265 32.6936 9.32354Z" fill="#F2EFDF"/>
<path d="M31.9651 8.91924C31.8243 8.84131 31.9451 8.61931 32.086 8.69842C32.2268 8.77636 32.1059 8.99836 31.9651 8.91924Z" fill="#F2EFDF"/>
<path d="M31.2385 8.51592C31.0977 8.43799 31.2186 8.21599 31.3594 8.2951C31.5002 8.37304 31.3793 8.59504 31.2385 8.51592Z" fill="#F2EFDF"/>
<path d="M30.51 8.11162C30.3692 8.03369 30.49 7.81169 30.6309 7.89081C30.7717 7.96874 30.6508 8.19074 30.51 8.11162Z" fill="#F2EFDF"/>
<path d="M29.7834 7.7083C29.6426 7.63037 29.7635 7.40837 29.9043 7.48749C30.0451 7.5666 29.9243 7.78742 29.7834 7.7083Z" fill="#F2EFDF"/>
<path d="M33.6233 10.2249C33.4825 10.147 33.6033 9.92497 33.7442 10.0041C33.885 10.0832 33.7641 10.304 33.6233 10.2249Z" fill="#F2EFDF"/>
<path d="M32.8948 9.82158C32.7539 9.74365 32.8748 9.52165 33.0156 9.60077C33.1565 9.6787 33.0356 9.9007 32.8948 9.82158Z" fill="#F2EFDF"/>
<path d="M32.1682 9.41826C32.0274 9.34033 32.1483 9.11833 32.2891 9.19745C32.4299 9.27538 32.309 9.49738 32.1682 9.41826Z" fill="#F2EFDF"/>
<path d="M31.4416 9.01299C31.3008 8.93506 31.4217 8.71306 31.5625 8.79217C31.7033 8.87011 31.5825 9.09211 31.4416 9.01299Z" fill="#F2EFDF"/>
<path d="M30.7112 8.61065C30.5703 8.53271 30.6912 8.31072 30.832 8.38983C30.9729 8.46895 30.852 8.68976 30.7112 8.61065Z" fill="#F2EFDF"/>
<path d="M29.9846 8.20635C29.8438 8.12842 29.9647 7.90642 30.1055 7.98553C30.2463 8.06347 30.1254 8.28547 29.9846 8.20635Z" fill="#F2EFDF"/>
<path d="M33.8284 10.7239C33.6875 10.646 33.8084 10.424 33.9492 10.5031C34.0901 10.5822 33.9692 10.803 33.8284 10.7239Z" fill="#F2EFDF"/>
<path d="M33.0998 10.3187C32.959 10.2407 33.0799 10.0187 33.2207 10.0978C33.3615 10.1758 33.2407 10.3978 33.0998 10.3187Z" fill="#F2EFDF"/>
<path d="M32.3733 9.91534C32.2325 9.8374 32.3533 9.6154 32.4942 9.69452C32.635 9.77245 32.5141 9.99445 32.3733 9.91534Z" fill="#F2EFDF"/>
<path d="M31.6448 9.51201C31.5039 9.43408 31.6248 9.21208 31.7656 9.2912C31.9065 9.36913 31.7856 9.59113 31.6448 9.51201Z" fill="#F2EFDF"/>
<path d="M30.9143 9.10869C30.7735 9.03076 30.8943 8.80876 31.0352 8.88788C31.176 8.96581 31.0551 9.18781 30.9143 9.10869Z" fill="#F2EFDF"/>
<path d="M30.1858 8.70342C30.045 8.62549 30.1658 8.40349 30.3067 8.4826C30.4475 8.56054 30.3266 8.78254 30.1858 8.70342Z" fill="#F2EFDF"/>
<path d="M29.4573 8.3001C29.3164 8.22217 29.4373 8.00017 29.5781 8.07928C29.719 8.1584 29.5981 8.37922 29.4573 8.3001Z" fill="#F2EFDF"/>
<path d="M34.0295 11.22C33.8887 11.1421 34.0096 10.9201 34.1504 10.9992C34.2912 11.0771 34.1704 11.2991 34.0295 11.22Z" fill="#F2EFDF"/>
<path d="M33.301 10.8167C33.1602 10.7388 33.2811 10.5168 33.4219 10.5959C33.5627 10.6738 33.4418 10.8958 33.301 10.8167Z" fill="#F2EFDF"/>
<path d="M32.5705 10.4134C32.4297 10.3354 32.5506 10.1134 32.6914 10.1926C32.8322 10.2705 32.7114 10.4925 32.5705 10.4134Z" fill="#F2EFDF"/>
<path d="M31.844 10.0101C31.7032 9.93213 31.824 9.71013 31.9649 9.78925C32.1057 9.86836 31.9848 10.0892 31.844 10.0101Z" fill="#F2EFDF"/>
<path d="M31.1174 9.60479C30.9766 9.52685 31.0975 9.30486 31.2383 9.38397C31.3791 9.46191 31.2582 9.6839 31.1174 9.60479Z" fill="#F2EFDF"/>
<path d="M30.3889 9.20147C30.2481 9.12353 30.369 8.90154 30.5098 8.98065C30.6506 9.05859 30.5297 9.28058 30.3889 9.20147Z" fill="#F2EFDF"/>
<path d="M29.6623 8.79815C29.5215 8.72021 29.6424 8.49822 29.7832 8.57733C29.924 8.65527 29.8032 8.87726 29.6623 8.79815Z" fill="#F2EFDF"/>
<path d="M28.9299 8.3958C28.7891 8.31787 28.91 8.09587 29.0508 8.17499C29.1916 8.2541 29.0707 8.47492 28.9299 8.3958Z" fill="#F2EFDF"/>
<path d="M33.5022 11.3147C33.3614 11.2368 33.4822 11.0148 33.6231 11.0939C33.7639 11.1719 33.643 11.3939 33.5022 11.3147Z" fill="#F2EFDF"/>
<path d="M32.7756 10.9105C32.6348 10.8325 32.7557 10.6105 32.8965 10.6896C33.0373 10.7676 32.9164 10.9896 32.7756 10.9105Z" fill="#F2EFDF"/>
<path d="M32.0471 10.5071C31.9063 10.4292 32.0272 10.2072 32.168 10.2863C32.3088 10.3643 32.1879 10.5862 32.0471 10.5071Z" fill="#F2EFDF"/>
<path d="M31.3186 10.1038C31.1778 10.0259 31.2986 9.80388 31.4395 9.883C31.5803 9.96093 31.4594 10.1829 31.3186 10.1038Z" fill="#F2EFDF"/>
<path d="M30.5881 9.70049C30.4473 9.62256 30.5682 9.40056 30.709 9.47967C30.8498 9.55761 30.7289 9.77961 30.5881 9.70049Z" fill="#F2EFDF"/>
<path d="M29.8616 9.29619C29.7207 9.21826 29.8416 8.99626 29.9824 9.07538C30.1233 9.15331 30.0024 9.37531 29.8616 9.29619Z" fill="#F2EFDF"/>
<path d="M29.133 8.8919C28.9922 8.81396 29.1131 8.59197 29.2539 8.67108C29.3947 8.74902 29.2739 8.97101 29.133 8.8919Z" fill="#F2EFDF"/>
<path d="M33.7053 11.8128C33.5645 11.7349 33.6854 11.5129 33.8262 11.592C33.967 11.6699 33.8461 11.8919 33.7053 11.8128Z" fill="#F2EFDF"/>
<path d="M32.9768 11.4095C32.836 11.3315 32.9568 11.1095 33.0977 11.1887C33.2385 11.2666 33.1176 11.4886 32.9768 11.4095Z" fill="#F2EFDF"/>
<path d="M32.2483 11.0052C32.1075 10.9272 32.2283 10.7052 32.3692 10.7844C32.51 10.8623 32.3891 11.0843 32.2483 11.0052Z" fill="#F2EFDF"/>
<path d="M31.5198 10.6019C31.3789 10.5239 31.4998 10.3019 31.6406 10.381C31.7815 10.459 31.6606 10.681 31.5198 10.6019Z" fill="#F2EFDF"/>
<path d="M30.7912 10.1976C30.6504 10.1196 30.7713 9.89763 30.9121 9.97675C31.0529 10.0559 30.9321 10.2767 30.7912 10.1976Z" fill="#F2EFDF"/>
<path d="M30.0647 9.79424C29.9239 9.71631 30.0447 9.49431 30.1856 9.57342C30.3264 9.65136 30.2055 9.87336 30.0647 9.79424Z" fill="#F2EFDF"/>
<path d="M29.3362 9.39092C29.1953 9.31299 29.3162 9.09099 29.457 9.1701C29.5979 9.24804 29.477 9.47004 29.3362 9.39092Z" fill="#F2EFDF"/>
<path d="M28.6077 8.9876C28.4668 8.90967 28.5877 8.68767 28.7285 8.76678C28.8694 8.8459 28.7485 9.06672 28.6077 8.9876Z" fill="#F2EFDF"/>
<path d="M33.178 11.9075C33.0371 11.8296 33.158 11.6076 33.2988 11.6867C33.4397 11.7646 33.3188 11.9866 33.178 11.9075Z" fill="#F2EFDF"/>
<path d="M32.4514 11.5032C32.3106 11.4253 32.4315 11.2033 32.5723 11.2824C32.7131 11.3603 32.5922 11.5823 32.4514 11.5032Z" fill="#F2EFDF"/>
<path d="M31.7229 11.0989C31.5821 11.021 31.7029 10.799 31.8438 10.8781C31.9846 10.956 31.8637 11.178 31.7229 11.0989Z" fill="#F2EFDF"/>
<path d="M30.9944 10.6956C30.8536 10.6177 30.9744 10.3957 31.1152 10.4748C31.2561 10.5527 31.1352 10.7747 30.9944 10.6956Z" fill="#F2EFDF"/>
<path d="M30.2659 10.2923C30.125 10.2144 30.2459 9.99236 30.3867 10.0715C30.5276 10.1494 30.4067 10.3714 30.2659 10.2923Z" fill="#F2EFDF"/>
<path d="M29.5373 9.88799C29.3965 9.81006 29.5174 9.58806 29.6582 9.66717C29.799 9.74511 29.6782 9.96711 29.5373 9.88799Z" fill="#F2EFDF"/>
<path d="M28.8108 9.48467C28.67 9.40674 28.7908 9.18474 28.9317 9.26385C29.0725 9.34297 28.9516 9.56379 28.8108 9.48467Z" fill="#F2EFDF"/>
<path d="M33.3811 12.4046C33.2403 12.3267 33.3611 12.1047 33.502 12.1838C33.6428 12.2617 33.5219 12.4837 33.3811 12.4046Z" fill="#F2EFDF"/>
<path d="M32.6506 12.0013C32.5098 11.9233 32.6307 11.7013 32.7715 11.7805C32.9123 11.8584 32.7914 12.0804 32.6506 12.0013Z" fill="#F2EFDF"/>
<path d="M31.9241 11.597C31.7832 11.519 31.9041 11.297 32.0449 11.3762C32.1858 11.4541 32.0649 11.6761 31.9241 11.597Z" fill="#F2EFDF"/>
<path d="M31.1936 11.1946C31.0528 11.1167 31.1736 10.8947 31.3145 10.9738C31.4553 11.0518 31.3344 11.2737 31.1936 11.1946Z" fill="#F2EFDF"/>
<path d="M30.4651 10.7894C30.3243 10.7114 30.4451 10.4894 30.586 10.5685C30.7268 10.6477 30.6059 10.8685 30.4651 10.7894Z" fill="#F2EFDF"/>
<path d="M29.7405 10.386C29.5996 10.3081 29.7205 10.0861 29.8613 10.1652C30.0022 10.2443 29.8813 10.4652 29.7405 10.386Z" fill="#F2EFDF"/>
<path d="M29.01 9.98272C28.8692 9.90478 28.99 9.68279 29.1309 9.7619C29.2717 9.83984 29.1508 10.0618 29.01 9.98272Z" fill="#F2EFDF"/>
<path d="M28.2815 9.5794C28.1407 9.50146 28.2615 9.27947 28.4024 9.35858C28.5432 9.43652 28.4223 9.65851 28.2815 9.5794Z" fill="#F2EFDF"/>
<path d="M32.8537 12.4993C32.7129 12.4214 32.8338 12.1994 32.9746 12.2785C33.1154 12.3564 32.9946 12.5784 32.8537 12.4993Z" fill="#F2EFDF"/>
<path d="M32.1252 12.095C31.9844 12.0171 32.1053 11.7951 32.2461 11.8742C32.3869 11.9521 32.2661 12.1741 32.1252 12.095Z" fill="#F2EFDF"/>
<path d="M31.3967 11.6917C31.2559 11.6138 31.3768 11.3918 31.5176 11.4709C31.6584 11.5488 31.5375 11.7708 31.3967 11.6917Z" fill="#F2EFDF"/>
<path d="M30.6702 11.2884C30.5293 11.2104 30.6502 10.9884 30.791 11.0676C30.9319 11.1455 30.811 11.3675 30.6702 11.2884Z" fill="#F2EFDF"/>
<path d="M29.9397 10.8841C29.7989 10.8061 29.9197 10.5842 30.0606 10.6633C30.2014 10.7412 30.0805 10.9632 29.9397 10.8841Z" fill="#F2EFDF"/>
<path d="M29.2112 10.4798C29.0703 10.4019 29.1912 10.1799 29.332 10.259C29.4729 10.3369 29.352 10.5589 29.2112 10.4798Z" fill="#F2EFDF"/>
<path d="M28.4827 10.0765C28.3418 9.99853 28.4627 9.77654 28.6035 9.85565C28.7444 9.93359 28.6235 10.1556 28.4827 10.0765Z" fill="#F2EFDF"/>
<path d="M33.0569 12.9974C32.9161 12.9194 33.0369 12.6974 33.1777 12.7765C33.3186 12.8545 33.1977 13.0765 33.0569 12.9974Z" fill="#F2EFDF"/>
<path d="M32.3264 12.5931C32.1856 12.5151 32.3065 12.2931 32.4473 12.3723C32.5881 12.4502 32.4672 12.6722 32.3264 12.5931Z" fill="#F2EFDF"/>
<path d="M31.5979 12.1907C31.4571 12.1128 31.5779 11.8908 31.7188 11.9699C31.8596 12.0478 31.7387 12.2698 31.5979 12.1907Z" fill="#F2EFDF"/>
<path d="M30.8713 11.7864C30.7305 11.7085 30.8514 11.4865 30.9922 11.5656C31.133 11.6435 31.0122 11.8655 30.8713 11.7864Z" fill="#F2EFDF"/>
<path d="M30.1448 11.3821C30.0039 11.3042 30.1248 11.0822 30.2656 11.1613C30.4065 11.2393 30.2856 11.4612 30.1448 11.3821Z" fill="#F2EFDF"/>
<path d="M29.4162 10.9778C29.2754 10.8999 29.3963 10.6779 29.5371 10.757C29.6779 10.835 29.5571 11.057 29.4162 10.9778Z" fill="#F2EFDF"/>
<path d="M28.6897 10.5755C28.5489 10.4976 28.6697 10.2756 28.8106 10.3547C28.9514 10.4326 28.8305 10.6546 28.6897 10.5755Z" fill="#F2EFDF"/>
<path d="M32.5315 13.0921C32.3907 13.0142 32.5115 12.7922 32.6524 12.8713C32.7932 12.9492 32.6723 13.1712 32.5315 13.0921Z" fill="#F2EFDF"/>
<path d="M31.803 12.6868C31.6621 12.6089 31.783 12.3869 31.9238 12.466C32.0647 12.5439 31.9438 12.7659 31.803 12.6868Z" fill="#F2EFDF"/>
<path d="M31.0745 12.2845C30.9336 12.2065 31.0545 11.9845 31.1953 12.0637C31.3362 12.1416 31.2153 12.3636 31.0745 12.2845Z" fill="#F2EFDF"/>
<path d="M30.3459 11.8802C30.2051 11.8022 30.326 11.5802 30.4668 11.6594C30.6076 11.7373 30.4868 11.9593 30.3459 11.8802Z" fill="#F2EFDF"/>
<path d="M29.6194 11.4769C29.4786 11.3989 29.5994 11.1769 29.7402 11.256C29.8811 11.3352 29.7602 11.556 29.6194 11.4769Z" fill="#F2EFDF"/>
<path d="M28.8889 11.0716C28.7481 10.9936 28.869 10.7717 29.0098 10.8508C29.1506 10.9287 29.0297 11.1507 28.8889 11.0716Z" fill="#F2EFDF"/>
<path d="M28.1604 10.6692C28.0196 10.5913 28.1404 10.3693 28.2813 10.4484C28.4221 10.5264 28.3012 10.7484 28.1604 10.6692Z" fill="#F2EFDF"/>
<path d="M32.0041 13.1858C31.8633 13.1079 31.9842 12.8859 32.125 12.965C32.2658 13.043 32.145 13.265 32.0041 13.1858Z" fill="#F2EFDF"/>
<path d="M31.2756 12.7825C31.1348 12.7046 31.2557 12.4826 31.3965 12.5617C31.5373 12.6396 31.4164 12.8616 31.2756 12.7825Z" fill="#F2EFDF"/>
<path d="M30.5471 12.3782C30.4063 12.3003 30.5272 12.0783 30.668 12.1574C30.8088 12.2353 30.6879 12.4573 30.5471 12.3782Z" fill="#F2EFDF"/>
<path d="M29.8186 11.9739C29.6778 11.896 29.7986 11.674 29.9395 11.7531C30.0803 11.831 29.9594 12.053 29.8186 11.9739Z" fill="#F2EFDF"/>
<path d="M29.0901 11.5706C28.9493 11.4927 29.0701 11.2707 29.211 11.3498C29.3518 11.4277 29.2309 11.6497 29.0901 11.5706Z" fill="#F2EFDF"/>
<path d="M28.3635 11.1673C28.2227 11.0894 28.3436 10.8674 28.4844 10.9465C28.6252 11.0244 28.5043 11.2464 28.3635 11.1673Z" fill="#F2EFDF"/>
<path d="M32.2053 13.6839C32.0645 13.606 32.1854 13.384 32.3262 13.4631C32.467 13.541 32.3461 13.763 32.2053 13.6839Z" fill="#F2EFDF"/>
<path d="M31.4748 13.2796C31.334 13.2017 31.4549 12.9797 31.5957 13.0588C31.7365 13.1367 31.6157 13.3587 31.4748 13.2796Z" fill="#F2EFDF"/>
<path d="M30.7522 12.8763C30.6114 12.7983 30.7322 12.5763 30.8731 12.6555C31.0139 12.7334 30.893 12.9554 30.7522 12.8763Z" fill="#F2EFDF"/>
<path d="M30.0198 12.472C29.8789 12.394 29.9998 12.172 30.1406 12.2512C30.2815 12.3291 30.1606 12.5511 30.0198 12.472Z" fill="#F2EFDF"/>
<path d="M29.2932 12.0687C29.1524 11.9907 29.2733 11.7687 29.4141 11.8478C29.5549 11.9258 29.434 12.1478 29.2932 12.0687Z" fill="#F2EFDF"/>
<path d="M28.5666 11.6644C28.4258 11.5864 28.5467 11.3644 28.6875 11.4435C28.8283 11.5215 28.7075 11.7435 28.5666 11.6644Z" fill="#F2EFDF"/>
<path d="M31.676 13.7776C31.5352 13.6997 31.6561 13.4777 31.7969 13.5568C31.9377 13.6359 31.8168 13.8568 31.676 13.7776Z" fill="#F2EFDF"/>
<path d="M30.9514 13.3743C30.8106 13.2964 30.9315 13.0744 31.0723 13.1535C31.2131 13.2314 31.0922 13.4534 30.9514 13.3743Z" fill="#F2EFDF"/>
<path d="M30.2209 12.971C30.0801 12.8931 30.201 12.6711 30.3418 12.7502C30.4826 12.8281 30.3618 13.0501 30.2209 12.971Z" fill="#F2EFDF"/>
<path d="M29.4944 12.5657C29.3536 12.4878 29.4744 12.2658 29.6152 12.3449C29.7561 12.4228 29.6352 12.6448 29.4944 12.5657Z" fill="#F2EFDF"/>
<path d="M28.7678 12.1634C28.627 12.0854 28.7479 11.8634 28.8887 11.9426C29.0295 12.0205 28.9086 12.2425 28.7678 12.1634Z" fill="#F2EFDF"/>
</g>
<defs>
<clipPath id="clip0_2_7679">
<rect width="47.23" height="54.72" fill="white" transform="translate(0.340088 0.5)"/>
</clipPath>
</defs>
</svg>
